<?xml version="1.0" encoding="UTF-8"?>
<svg width="10px" height="10px" viewBox="0 0 10 10" version="1.1" xmlns="http://www.w3.org/2000/svg" xmlns:xlink="http://www.w3.org/1999/xlink">
    <!-- Generator: Sketch 49.2 (51160) - http://www.bohemiancoding.com/sketch -->
    <title>image</title>
    <desc>Created with Sketch.</desc>
    <defs>
        <path d="M9,5.29289322 L9,1.5 C9,1.22385763 8.77614237,1 8.5,1 L1.5,1 C1.22385763,1 1,1.22385763 1,1.5 L1,8.5 C1,8.71440455 1.13495028,8.89728977 1.32454419,8.96834903 L6.64644661,3.64644661 C6.84170876,3.45118446 7.15829124,3.45118446 7.35355339,3.64644661 L9,5.29289322 Z M9,6.70710678 L7,4.70710678 L2.70710678,9 L8.5,9 C8.77614237,9 9,8.77614237 9,8.5 L9,6.70710678 Z M1.5,0 L8.5,0 C9.32842712,-1.11022302e-16 10,0.671572875 10,1.5 L10,8.5 C10,9.32842712 9.32842712,10 8.5,10 L1.5,10 C0.671572875,10 1.11022302e-16,9.32842712 0,8.5 L0,1.5 C-1.11022302e-16,0.671572875 0.671572875,1.66533454e-16 1.5,0 Z M3.25,4.5 C2.55964406,4.5 2,3.94035594 2,3.25 C2,2.55964406 2.55964406,2 3.25,2 C3.94035594,2 4.5,2.55964406 4.5,3.25 C4.5,3.94035594 3.94035594,4.5 3.25,4.5 Z M3.25,3.5 C3.38807119,3.5 3.5,3.38807119 3.5,3.25 C3.5,3.11192881 3.38807119,3 3.25,3 C3.11192881,3 3,3.11192881 3,3.25 C3,3.38807119 3.11192881,3.5 3.25,3.5 Z" id="path-1"></path>
    </defs>
    <g id="Page-1" stroke="none" stroke-width="1" fill="none" fill-rule="evenodd">
        <g id="image">
            <mask id="mask-2" fill="white">
                <use xlink:href="#path-1"></use>
            </mask>
            <use id="Combined-Shape" fill="#000000" fill-rule="nonzero" xlink:href="#path-1"></use>
        </g>
    </g>
</svg>